<svg width="154" height="34" viewBox="0 0 154 34" fill="none" xmlns="http://www.w3.org/2000/svg">
<path d="M18.1561 0.274058C27.5679 0.567516 34.9748 8.32979 34.6817 17.5842C34.3832 26.8386 26.4889 34.1215 17.077 33.8333C7.66045 33.5398 0.253183 25.7895 0.551424 16.5351C0.840005 7.42507 8.48642 0.221943 17.7075 0.274058C17.8539 0.274821 18.009 0.269557 18.1561 0.274058ZM53.0455 9.55735C57.8547 9.55735 61.5653 12.6845 62.1268 17.2202H57.2444C56.8782 15.0717 55.2426 13.5917 53.0943 13.5917C50.5066 13.5917 48.871 15.5491 48.871 18.4615C48.871 21.3977 50.5066 23.3791 53.0943 23.3791C55.2182 23.3791 56.8538 21.899 57.2444 19.7267H62.1268C61.5409 24.3101 57.8547 27.4134 53.0455 27.4134C48.0654 27.4134 44.1351 23.4984 44.1351 18.4615C44.1351 13.4484 48.0654 9.55735 53.0455 9.55735ZM94.0576 9.91542C97.8903 9.91542 100.283 11.5626 100.283 14.5465C100.283 16.0504 99.4771 17.2202 98.0124 18.0795C99.7945 18.8196 100.795 20.0848 100.795 21.899C100.795 25.1217 98.3542 27.0553 94.2774 27.0553H87.027V9.91542H94.0576ZM112.22 9.91542L118.641 27.0553H113.66L112.586 23.8804H106.435L105.336 27.0553H100.673L107.167 9.91542H112.22ZM124.841 9.91542L131.31 19.8222V9.91542H135.534V27.0553H131.091L124.109 16.3608V27.0553H119.886V9.91542H124.841ZM142.955 9.91542V17.1247L148.423 9.91542H153.672L147.495 17.9602L153.843 27.0553H148.228L142.955 19.3209V27.0553H138.341V9.91542H142.955ZM66.3744 9.91542L68.7424 20.1325L71.5254 9.91542H76.1881L78.8732 20.1788L81.2658 9.91542H85.782L81.3146 27.0553H76.6763L73.8201 16.3847L70.9639 27.0553H66.3012L61.8582 9.91542H66.3744ZM17.7314 1.87237C9.35833 1.82377 2.43874 8.38346 2.17672 16.7157C2.05296 20.5819 3.38547 24.147 5.6817 26.9145L28.1858 5.97823C25.5415 3.53519 22.0331 1.99506 18.1303 1.87237C17.9967 1.86838 17.8644 1.87313 17.7314 1.87237ZM93.9112 19.9893H91.2014V23.4984H93.9112C95.6444 23.4984 96.45 22.83 96.45 21.7319C96.45 20.6816 95.6444 19.9893 93.9112 19.9893ZM109.559 14.8807L107.68 20.3235H111.39L109.559 14.8807ZM93.6915 13.4723H91.2014V16.4324H93.6915C95.2294 16.4324 95.9374 15.8595 95.9374 14.9285C95.9374 14.0452 95.2294 13.4723 93.6915 13.4723Z" fill="#B0B0B0"/>
</svg>
