<svg width="118" height="36" viewBox="0 0 118 36" fill="none" xmlns="http://www.w3.org/2000/svg">
<path fill-rule="evenodd" clip-rule="evenodd" d="M30.9884 0.153076C34.851 0.153076 37.9823 3.17788 37.9823 6.90917V21.097C37.9823 24.8282 34.851 27.853 30.9884 27.853H22.5957V29.2043C22.5957 32.9355 19.4644 35.9604 15.6017 35.9604H7.90837C4.04572 35.9604 0.914429 32.9355 0.914429 29.2043V21.7726C0.914429 18.0413 4.04572 15.0165 7.90837 15.0165H9.17394V21.2256C9.17394 24.8937 12.2 27.879 15.9721 27.9791L16.1679 27.9817L22.5953 27.9814L22.5957 27.853H16.3011L22.595 27.8524V21.7253L22.5957 21.7726V27.853L22.8621 27.8525L22.8627 21.5146C22.8627 17.8466 19.8367 14.8613 16.0645 14.7611L15.8688 14.7585H9.30716V6.90917C9.30716 3.17788 12.4385 0.153076 16.3011 0.153076H30.9884ZM54.6895 11.7411C58.5613 11.7411 60.4637 13.622 61.2022 16.0866C61.2246 16.1515 61.1799 16.238 61.0903 16.238H58.4494C58.248 16.238 58.2032 16.1515 58.1809 16.0866C57.5094 14.7678 56.1666 14.1193 54.6895 14.1193C52.0038 14.1193 50.3924 16.2812 50.3924 19.5674C50.3924 22.9616 51.9143 25.0155 54.6895 25.0155C56.9052 25.0155 58.897 24.1507 59.0537 21.0591V20.8429C59.0537 20.7781 59.0313 20.7564 58.9642 20.7564H54.779C54.7119 20.7564 54.6895 20.7132 54.6895 20.6484V18.508C54.6895 18.4432 54.7119 18.3999 54.779 18.3999H61.4037C61.4708 18.3999 61.5156 18.4432 61.5156 18.508V27.091C61.5156 27.1558 61.4708 27.1774 61.4037 27.1774H59.367C59.2999 27.1774 59.2775 27.1558 59.2551 27.091L59.0313 25.9667C59.0089 25.8803 58.9194 25.837 58.8075 25.9235C57.7556 26.745 56.5023 27.3936 54.6895 27.3936C50.191 27.3936 47.5948 24.1507 47.5948 19.5674C47.5948 15.0057 50.191 11.7411 54.6895 11.7411ZM70.9378 11.9573C73.4668 11.9573 75.6601 14.0112 75.6601 16.6487C75.6601 18.4648 74.653 19.9781 73.2206 20.7564C73.1982 20.7781 73.1982 20.7997 73.2206 20.8429L76.063 27.0261C76.1077 27.1126 76.0406 27.1774 75.9511 27.1774H73.3773C73.3325 27.1774 73.2878 27.1342 73.2654 27.1126L70.6692 21.4483C70.6245 21.3618 70.5573 21.3402 70.4902 21.3402H67.0436C66.9764 21.3402 66.9541 21.3618 66.9541 21.4267V27.0693C66.9541 27.1342 66.9093 27.1774 66.8422 27.1774H64.3803C64.3131 27.1774 64.2684 27.1342 64.2684 27.0693V12.0654C64.2684 12.0006 64.3131 11.9573 64.3803 11.9573H70.9378ZM88.999 11.9573C89.0661 11.9573 89.1109 12.0006 89.1109 12.0654V14.2274C89.1109 14.2922 89.0661 14.3355 88.999 14.3355H80.7405C80.6734 14.3355 80.6286 14.3787 80.6286 14.4436V18.1621C80.6286 18.227 80.6734 18.2702 80.7405 18.2702H87.8799C87.9471 18.2702 87.9918 18.3134 87.9918 18.3783V20.5403C87.9918 20.6051 87.9471 20.6484 87.8799 20.6484H80.7405C80.6734 20.6484 80.6286 20.6916 80.6286 20.7564V24.6912C80.6286 24.7561 80.6734 24.7993 80.7405 24.7993H88.999C89.0661 24.7993 89.1109 24.8425 89.1109 24.9074V27.0693C89.1109 27.1342 89.0661 27.1774 88.999 27.1774H78.0548C77.9877 27.1774 77.9429 27.1342 77.9429 27.0693V12.0654C77.9429 12.0006 77.9877 11.9573 78.0548 11.9573H88.999ZM102.36 11.9573C102.427 11.9573 102.472 12.0006 102.472 12.0654V14.2274C102.472 14.2922 102.427 14.3355 102.36 14.3355H94.1018C94.0346 14.3355 93.9899 14.3787 93.9899 14.4436V18.1621C93.9899 18.227 94.0346 18.2702 94.1018 18.2702H101.241C101.308 18.2702 101.353 18.3134 101.353 18.3783V20.5403C101.353 20.6051 101.308 20.6484 101.241 20.6484H94.1018C94.0346 20.6484 93.9899 20.6916 93.9899 20.7564V24.6912C93.9899 24.7561 94.0346 24.7993 94.1018 24.7993H102.36C102.427 24.7993 102.472 24.8425 102.472 24.9074V27.0693C102.472 27.1342 102.427 27.1774 102.36 27.1774H91.4161C91.3489 27.1774 91.3042 27.1342 91.3042 27.0693V12.0654C91.3042 12.0006 91.3489 11.9573 91.4161 11.9573H102.36ZM108.112 11.9573C108.179 11.9573 108.224 12.0222 108.246 12.0654L114.379 23.4373C114.446 23.5886 114.602 23.5454 114.602 23.4373V12.0654C114.602 12.0006 114.647 11.9573 114.714 11.9573H117.176C117.243 11.9573 117.288 12.0006 117.288 12.0654V27.0693C117.288 27.1342 117.243 27.1774 117.176 27.1774H113.841C113.774 27.1774 113.707 27.1126 113.685 27.0693L107.575 15.6975C107.508 15.5462 107.351 15.5894 107.351 15.6975V27.0693C107.351 27.1342 107.306 27.1774 107.239 27.1774H104.755C104.71 27.1774 104.665 27.1342 104.665 27.0693V12.0654C104.665 12.0006 104.71 11.9573 104.777 11.9573H108.112ZM70.714 14.3355H67.0436C66.9764 14.3355 66.9541 14.3787 66.9541 14.4219V18.8539C66.9541 18.9188 66.9988 18.962 67.066 18.962H70.8035C71.9449 18.962 72.9968 17.9027 72.9968 16.6487C72.9968 15.3732 71.9002 14.3355 70.714 14.3355Z" fill="#B0B0B0"/>
</svg>
