<svg width="90" height="38" viewBox="0 0 90 38" fill="none" xmlns="http://www.w3.org/2000/svg">
<path d="M6.5 36.836C5.824 36.836 5.304 36.316 5.304 35.64V32.832C5.304 32.156 4.784 31.636 4.108 31.636H1.196C0.52 31.636 0 31.116 0 30.44V6.83204C0 6.15604 0.52 5.63604 1.196 5.63604H4.108C4.784 5.63604 5.304 5.11604 5.304 4.44004V1.63204C5.304 0.956035 5.824 0.436035 6.5 0.436035H25.324C26 0.436035 26.52 0.956035 26.52 1.63204V4.44004C26.52 5.11604 27.04 5.63604 27.716 5.63604H30.628C31.304 5.63604 31.824 6.15604 31.824 6.83204V30.44C31.824 31.116 31.304 31.636 30.628 31.636H27.716C27.04 31.636 26.52 32.156 26.52 32.832V35.64C26.52 36.316 26 36.836 25.324 36.836H6.5ZM5.304 30.44C5.304 31.116 5.824 31.636 6.5 31.636H25.324C26 31.636 26.52 31.116 26.52 30.44V6.83204C26.52 6.15604 26 5.63604 25.324 5.63604H6.5C5.824 5.63604 5.304 6.15604 5.304 6.83204V30.44Z" fill="#E9FF52"/>
<path d="M42.1651 15.308C42.7891 13.644 43.8118 12.396 45.2331 11.564C46.6891 10.732 48.3011 10.316 50.0691 10.316V17.804C48.0238 17.5614 46.1864 17.9774 44.5571 19.052C42.9624 20.1267 42.1651 21.912 42.1651 24.408V36.836H35.4571V10.836H42.1651V15.308Z" fill="#E9FF52"/>
<path d="M70.7074 10.836H77.4154V36.836H70.7074V33.768C68.6967 36.2987 65.8714 37.564 62.2314 37.564C58.7647 37.564 55.7834 36.2467 53.2874 33.612C50.8261 30.9427 49.5954 27.684 49.5954 23.836C49.5954 19.988 50.8261 16.7467 53.2874 14.112C55.7834 11.4427 58.7647 10.108 62.2314 10.108C65.8714 10.108 68.6967 11.3734 70.7074 13.904V10.836ZM58.3314 29.14C59.6834 30.492 61.3994 31.168 63.4794 31.168C65.5594 31.168 67.2754 30.492 68.6274 29.14C70.0141 27.7534 70.7074 25.9854 70.7074 23.836C70.7074 21.6867 70.0141 19.936 68.6274 18.584C67.2754 17.1974 65.5594 16.504 63.4794 16.504C61.3994 16.504 59.6834 17.1974 58.3314 18.584C56.9794 19.936 56.3034 21.6867 56.3034 23.836C56.3034 25.9854 56.9794 27.7534 58.3314 29.14Z" fill="#E9FF52"/>
<path d="M88.4382 36.212C87.5715 37.0787 86.5315 37.512 85.3182 37.512C84.1049 37.512 83.0649 37.0787 82.1982 36.212C81.3315 35.3454 80.8982 34.3054 80.8982 33.092C80.8982 31.8787 81.3315 30.8387 82.1982 29.972C83.0649 29.1054 84.1049 28.672 85.3182 28.672C86.5315 28.672 87.5715 29.1054 88.4382 29.972C89.3049 30.8387 89.7382 31.8787 89.7382 33.092C89.7382 34.3054 89.3049 35.3454 88.4382 36.212Z" fill="#E9FF52"/>
</svg>
