<svg width="30" height="31" viewBox="0 0 30 31" fill="none" xmlns="http://www.w3.org/2000/svg">
<path d="M15 8.5C19.0111 8.5 22.5928 9.36942 25.1357 10.7256C27.7216 12.1047 29 13.84 29 15.5C29 17.16 27.7216 18.8953 25.1357 20.2744C22.5928 21.6306 19.0111 22.5 15 22.5C10.9889 22.5 7.40715 21.6306 4.86426 20.2744C2.27838 18.8953 1 17.16 1 15.5C1 13.84 2.27838 12.1047 4.86426 10.7256C7.40715 9.36942 10.9889 8.5 15 8.5Z" stroke="black" stroke-width="2"/>
<path d="M22 15.5C22 19.5111 21.1306 23.0928 19.7744 25.6357C18.3953 28.2216 16.66 29.5 15 29.5C13.34 29.5 11.6047 28.2216 10.2256 25.6357C8.86942 23.0928 8 19.5111 8 15.5C8 11.4889 8.86942 7.90715 10.2256 5.36426C11.6047 2.77838 13.34 1.5 15 1.5C16.66 1.5 18.3953 2.77838 19.7744 5.36426C21.1306 7.90715 22 11.4889 22 15.5Z" stroke="black" stroke-width="2"/>
<circle cx="14.5" cy="15" r="2.5" fill="black"/>
</svg>
